<svg xmlns="http://www.w3.org/2000/svg" viewBox="0 0 1180 420" role="img" aria-label="Rung 2 flow: withItems fans one step out across thirty days, capped by a parallelism limit of ten">
  <title>Rung 2 flow: withItems fans one step out across thirty days, capped by a parallelism limit of ten</title>
  <defs><marker id="arr" markerWidth="10" markerHeight="10" refX="8" refY="3" orient="auto"><path d="M0,0 L9,3 L0,6 z" fill="#443f3f"/></marker></defs>
  <rect x="60" y="160" width="250" height="90" rx="12" fill="#443f3f" stroke="#443f3f" stroke-width="2"/><text x="185" y="205" text-anchor="middle" font-family="Roboto, system-ui, sans-serif" font-size="24" font-weight="700" fill="#ffffff">30 days to backfill</text><text x="185" y="235" text-anchor="middle" font-family="Roboto, system-ui, sans-serif" font-size="19" fill="#ffffff">withItems: one per day</text><text x="590" y="400" text-anchor="middle" font-family="Roboto, system-ui, sans-serif" font-size="22" font-weight="700" fill="#443f3f">parallelism: 10 — the politeness cap</text><line x1="310" y1="205" x2="560" y2="95" stroke="#443f3f" stroke-width="4" marker-end="url(#arr)"/><rect x="570" y="60" width="180" height="70" rx="12" fill="#4da167" stroke="#443f3f" stroke-width="2"/><text x="660" y="103" text-anchor="middle" font-family="Roboto, system-ui, sans-serif" font-size="24" font-weight="700" fill="#111111">day 01</text><line x1="750" y1="95" x2="950" y2="205" stroke="#443f3f" stroke-width="4" marker-end="url(#arr)"/><line x1="310" y1="205" x2="560" y2="175" stroke="#443f3f" stroke-width="4" marker-end="url(#arr)"/><rect x="570" y="140" width="180" height="70" rx="12" fill="#4da167" stroke="#443f3f" stroke-width="2"/><text x="660" y="183" text-anchor="middle" font-family="Roboto, system-ui, sans-serif" font-size="24" font-weight="700" fill="#111111">day 02</text><line x1="750" y1="175" x2="950" y2="205" stroke="#443f3f" stroke-width="4" marker-end="url(#arr)"/><line x1="310" y1="205" x2="560" y2="255" stroke="#443f3f" stroke-width="4" marker-end="url(#arr)"/><rect x="570" y="220" width="180" height="70" rx="12" fill="#4da167" stroke="#443f3f" stroke-width="2"/><text x="660" y="263" text-anchor="middle" font-family="Roboto, system-ui, sans-serif" font-size="24" font-weight="700" fill="#111111">day 03</text><line x1="750" y1="255" x2="950" y2="205" stroke="#443f3f" stroke-width="4" marker-end="url(#arr)"/><line x1="310" y1="205" x2="560" y2="335" stroke="#443f3f" stroke-width="4" marker-end="url(#arr)"/><rect x="570" y="300" width="180" height="70" rx="12" fill="#9aa0a6" stroke="#443f3f" stroke-width="2"/><text x="660" y="343" text-anchor="middle" font-family="Roboto, system-ui, sans-serif" font-size="24" font-weight="700" fill="#111111">…queued</text><line x1="750" y1="335" x2="950" y2="205" stroke="#443f3f" stroke-width="4" marker-end="url(#arr)"/><rect x="960" y="160" width="170" height="90" rx="12" fill="#443f3f" stroke="#443f3f" stroke-width="2"/><text x="1045" y="205" text-anchor="middle" font-family="Roboto, system-ui, sans-serif" font-size="24" font-weight="700" fill="#ffffff">catalog</text><text x="1045" y="235" text-anchor="middle" font-family="Roboto, system-ui, sans-serif" font-size="19" fill="#ffffff">fills in bulk</text>
</svg>
